<svg width="16" height="16" viewBox="0 0 16 16" fill="none" xmlns="http://www.w3.org/2000/svg">
<mask id="path-1-inside-1" fill="white">
<path fill-rule="evenodd" clip-rule="evenodd" d="M9.25 1H1V9.25H4.75V13H13V4.75H9.25V1Z"/>
</mask>
<path d="M1 1V0H0V1H1ZM9.25 1H10.25V0H9.25V1ZM1 9.25H0V10.25H1V9.25ZM4.75 9.25H5.75V8.25H4.75V9.25ZM4.75 13H3.75V14H4.75V13ZM13 13V14H14V13H13ZM13 4.75H14V3.75H13V4.75ZM9.25 4.75H8.25V5.75H9.25V4.75ZM1 2H9.25V0H1V2ZM2 9.25V1H0V9.25H2ZM4.75 8.25H1V10.25H4.75V8.25ZM3.75 9.25V13H5.75V9.25H3.75ZM4.75 14H13V12H4.75V14ZM14 13V4.75H12V13H14ZM13 3.75H9.25V5.75H13V3.75ZM8.25 1V4.75H10.25V1H8.25Z" fill="black" mask="url(#path-1-inside-1)"/>
</svg>
